<svg width="164" height="41" viewBox="0 0 164 41" fill="none" xmlns="http://www.w3.org/2000/svg">
<g clip-path="url(#clip0_46_74)">
<path d="M62.2481 10.5162V18.6364H75.017V22.763H62.2481V32.8799H57.3268V6.38961H76.7461V10.5162H62.2481Z" fill="white"/>
<path d="M99.0916 12.6461V32.8799H94.5693V30.3506C93.7713 31.2825 92.8402 31.9481 91.7762 32.4805C90.5791 33.013 89.382 33.2792 88.0519 33.2792C85.3917 33.2792 83.2636 32.4805 81.6675 31.0162C80.0714 29.5519 79.2733 27.289 79.2733 24.3604V12.6461H84.0616V23.5617C84.0616 25.4253 84.4607 26.7565 85.2587 27.6883C86.0568 28.6201 87.2538 29.0195 88.7169 29.0195C90.4461 29.0195 91.7762 28.487 92.7072 27.4221C93.7713 26.3571 94.1703 24.8929 94.1703 22.8961V12.6461H99.0916Z" fill="white"/>
<path d="M115.984 12.3799V16.9058C115.585 16.7727 115.186 16.7727 114.92 16.7727C113.058 16.7727 111.594 17.3052 110.663 18.3701C109.599 19.4351 109.067 21.0325 109.067 23.0292V32.8799H104.279V12.6461H108.801V15.5747C110.131 13.4448 112.658 12.3799 115.984 12.3799Z" fill="white"/>
<path d="M135.669 13.711C137.265 14.5097 138.462 15.8409 139.393 17.3052C140.324 18.9026 140.723 20.6331 140.723 22.763C140.723 24.8929 140.324 26.6234 139.393 28.2208C138.462 29.8182 137.265 31.0162 135.669 31.9481C134.073 32.7468 132.344 33.2792 130.349 33.2792C129.019 33.2792 127.689 33.013 126.491 32.6136C125.294 32.0812 124.363 31.4156 123.565 30.4838V33.1461H119.043V4.79221H123.831V15.1753C124.629 14.2435 125.56 13.5779 126.757 13.1786C127.822 12.6461 129.019 12.3799 130.349 12.3799C132.344 12.3799 134.073 12.9123 135.669 13.711ZM134.073 27.4221C135.137 26.224 135.802 24.7597 135.802 22.8961C135.802 21.0325 135.27 19.4351 134.073 18.3701C132.876 17.3052 131.546 16.6396 129.817 16.6396C128.62 16.6396 127.689 16.9058 126.757 17.4383C125.826 17.9708 125.161 18.6364 124.629 19.7013C124.097 20.6331 123.831 21.8312 123.831 23.0292C123.831 24.2273 124.097 25.4253 124.629 26.3571C125.161 27.289 125.826 28.0877 126.757 28.6201C127.689 29.1526 128.753 29.4188 129.817 29.4188C131.546 29.1526 133.009 28.487 134.073 27.4221Z" fill="white"/>
<path d="M147.773 31.8149C146.177 30.8831 144.847 29.6851 143.916 28.0877C142.984 26.4903 142.585 24.7597 142.585 22.763C142.585 20.7662 142.984 19.0357 143.916 17.4383C144.847 15.8409 146.177 14.6429 147.773 13.711C149.369 12.7792 151.231 12.3799 153.359 12.3799C155.487 12.3799 157.349 12.7792 158.946 13.711C160.542 14.6429 161.872 15.8409 162.803 17.4383C163.734 19.0357 164.133 20.7662 164.133 22.763C164.133 24.7597 163.734 26.4903 162.803 28.0877C161.872 29.6851 160.542 30.8831 158.946 31.8149C157.349 32.7468 155.487 33.1461 153.359 33.1461C151.231 33.1461 149.369 32.7468 147.773 31.8149ZM157.615 27.4221C158.813 26.224 159.345 24.7597 159.345 22.8961C159.345 21.0325 158.813 19.4351 157.615 18.3701C156.418 17.3052 155.088 16.6396 153.359 16.6396C151.63 16.6396 150.167 17.1721 149.103 18.3701C148.039 19.5682 147.374 21.0325 147.374 22.8961C147.374 24.7597 147.906 26.3571 149.103 27.4221C150.167 28.6201 151.63 29.1526 153.359 29.1526C154.955 29.1526 156.418 28.487 157.615 27.4221Z" fill="white"/>
<path d="M4.78829 30.0844H2.39413C2.39413 30.0844 2.39413 30.0844 2.39413 29.9513C2.26112 29.6851 2.12812 29.2857 1.8621 29.0195V28.8864C1.72909 28.487 1.59608 28.2208 1.46307 27.8214C1.46307 27.8214 1.46307 27.8214 1.46307 27.6883C1.33006 27.289 1.19705 27.0227 1.06404 26.6234C0.931036 26.224 0.798027 25.9578 0.798027 25.5584V25.4253C0.665018 25.026 0.665018 24.7597 0.532009 24.3604V24.2273C0.532009 23.8279 0.399 23.5617 0.399 23.1623V23.0292C0.399 22.6299 0.399 22.3636 0.265991 21.9643V21.8312C0.265991 21.4318 0.265991 21.0325 0.265991 20.6331C0.265991 20.2338 0.265991 19.8344 0.265991 19.4351V19.3019C0.265991 18.9026 0.265991 18.5032 0.399 18.1039V17.9708C0.399 17.5714 0.532009 17.1721 0.532009 16.9058C0.532009 16.9058 0.532009 16.7727 0.532009 16.6396C0.665018 16.2403 0.665018 15.974 0.798027 15.5747V15.4416C0.931036 15.0422 1.06404 14.6429 1.06404 14.3766C1.06404 14.3766 1.06404 14.3766 1.06404 14.2435C1.19705 13.711 1.33006 13.3117 1.46307 13.0455C1.59608 12.6461 1.72909 12.3799 1.99511 11.9805V11.8474C2.12812 11.4481 2.39413 11.1818 2.52714 10.7825V10.6493H4.78829V30.0844Z" fill="#697BFF"/>
<path d="M18.8872 14.9091V26.0909C16.4931 25.2922 14.897 23.1623 14.897 20.5C14.7639 17.9708 16.4931 15.7078 18.8872 14.9091Z" fill="#697BFF"/>
<path d="M18.8873 0V11.1818C14.498 12.1136 11.1728 15.8409 11.1728 20.5C11.1728 25.1591 14.498 29.0195 18.8873 29.8182V41C13.4339 40.6007 8.24656 37.8052 4.78833 33.6786H8.51258V7.0552H5.05435C8.51258 2.92857 13.4339 0.399351 18.8873 0Z" fill="#697BFF"/>
<path d="M22.4785 26.0909V14.776C24.8727 15.5747 26.6018 17.8377 26.6018 20.3669C26.6018 23.1623 24.8727 25.4253 22.4785 26.0909Z" fill="#697BFF"/>
<path d="M32.9862 33.6786H36.4445C32.9862 37.8052 27.9319 40.4675 22.4785 41V29.8182C26.8678 29.0195 30.193 25.1591 30.193 20.5C30.193 15.8409 26.8678 11.9805 22.4785 11.1818V0C27.7989 0.532468 32.5872 2.92857 36.0454 7.0552H32.9862V33.6786Z" fill="#697BFF"/>
<path d="M41.0997 20.5C41.0997 20.8993 41.0997 21.2987 41.0997 21.698V21.8312C41.0997 22.2305 41.0997 22.6299 40.9667 22.8961V23.0292C40.9667 23.4286 40.8337 23.6948 40.8337 24.0942C40.8337 24.2273 40.8337 24.2273 40.8337 24.2273C40.7007 24.6266 40.7007 24.8929 40.5677 25.2922V25.4253C40.4347 25.8247 40.4347 26.0909 40.3017 26.4903C40.1687 26.8896 40.0357 27.1558 39.9027 27.5552C39.9027 27.5552 39.9027 27.5552 39.9027 27.6883C39.7697 28.0877 39.6366 28.3539 39.5036 28.7532V28.8864C39.3706 29.2857 39.2376 29.5519 38.9716 29.8182C38.9716 29.8182 38.9716 29.8182 38.9716 29.9513H36.7104V10.6493H38.5726C38.5726 10.6493 38.5726 10.6493 38.5726 10.7825C38.7056 11.1818 38.9716 11.4481 39.1046 11.8474V11.9805C39.2376 12.3799 39.3706 12.6461 39.6366 13.0455C39.7697 13.4448 39.9027 13.711 40.0357 14.1104C40.0357 14.1104 40.0357 14.1104 40.0357 14.2435C40.1687 14.6429 40.3017 14.9091 40.3017 15.3084V15.4416C40.4347 15.8409 40.4347 16.1071 40.5677 16.5065C40.5677 16.6396 40.5677 16.6396 40.5677 16.7727C40.5677 17.1721 40.7007 17.4383 40.7007 17.8377V17.9708C40.7007 18.3701 40.8337 18.7695 40.8337 19.1688V19.3019C41.0997 19.7013 41.0997 20.1006 41.0997 20.5Z" fill="#697BFF"/>
</g>
<defs>
<clipPath id="clip0_46_74">
<rect width="164" height="41" fill="white"/>
</clipPath>
</defs>
</svg>
