<svg width="348" height="87" viewBox="0 0 348 87" fill="none" xmlns="http://www.w3.org/2000/svg">
<g clip-path="url(#clip0_45_58)">
<path d="M132.088 22.3149V39.5455H159.182V48.3019H132.088V69.7695H121.645V13.5584H162.852V22.3149H132.088Z" fill="#2C2D28"/>
<path d="M210.268 26.8344V69.7695H200.672V64.4026C198.978 66.3799 197.002 67.7922 194.745 68.9221C192.204 70.052 189.664 70.6169 186.842 70.6169C181.197 70.6169 176.681 68.9221 173.294 65.8149C169.908 62.7078 168.214 57.9058 168.214 51.6916V26.8344H178.375V49.9968C178.375 53.9513 179.221 56.776 180.915 58.7533C182.608 60.7305 185.148 61.5779 188.253 61.5779C191.922 61.5779 194.745 60.4481 196.72 58.1883C198.978 55.9286 199.825 52.8214 199.825 48.5844V26.8344H210.268Z" fill="#2C2D28"/>
<path d="M246.112 26.2695V35.8734C245.265 35.5909 244.418 35.5909 243.854 35.5909C239.903 35.5909 236.798 36.7208 234.822 38.9805C232.564 41.2403 231.435 44.6299 231.435 48.8669V69.7695H221.275V26.8344H230.871V33.0487C233.693 28.5292 239.056 26.2695 246.112 26.2695Z" fill="#2C2D28"/>
<path d="M287.883 29.0942C291.27 30.789 293.81 33.6136 295.786 36.7208C297.762 40.1104 298.608 43.7825 298.608 48.302C298.608 52.8214 297.762 56.4935 295.786 59.8831C293.81 63.2727 291.27 65.8149 287.883 67.7922C284.496 69.487 280.827 70.6169 276.594 70.6169C273.771 70.6169 270.949 70.052 268.409 69.2045C265.869 68.0747 263.893 66.6623 262.2 64.6851V70.3344H252.603V10.1688H262.764V32.2013C264.457 30.224 266.433 28.8117 268.973 27.9643C271.231 26.8344 273.771 26.2695 276.594 26.2695C280.827 26.2695 284.496 27.3994 287.883 29.0942ZM284.496 58.1883C286.754 55.6461 288.165 52.539 288.165 48.5844C288.165 44.6299 287.036 41.2403 284.496 38.9805C281.956 36.7208 279.134 35.3084 275.465 35.3084C272.925 35.3084 270.949 35.8734 268.973 37.0032C266.998 38.1331 265.586 39.5455 264.457 41.8052C263.328 43.7825 262.764 46.3247 262.764 48.8669C262.764 51.4091 263.328 53.9513 264.457 55.9286C265.586 57.9058 266.998 59.6007 268.973 60.7305C270.949 61.8604 273.207 62.4253 275.465 62.4253C279.134 61.8604 282.238 60.4481 284.496 58.1883Z" fill="#2C2D28"/>
<path d="M313.567 67.5097C310.18 65.5325 307.358 62.9903 305.382 59.6007C303.406 56.211 302.56 52.539 302.56 48.302C302.56 44.0649 303.406 40.3929 305.382 37.0033C307.358 33.6136 310.18 31.0714 313.567 29.0942C316.954 27.1169 320.905 26.2695 325.421 26.2695C329.937 26.2695 333.888 27.1169 337.275 29.0942C340.662 31.0714 343.484 33.6136 345.46 37.0033C347.436 40.3929 348.282 44.0649 348.282 48.302C348.282 52.539 347.436 56.211 345.46 59.6007C343.484 62.9903 340.662 65.5325 337.275 67.5097C333.888 69.487 329.937 70.3344 325.421 70.3344C320.905 70.3344 316.954 69.487 313.567 67.5097ZM334.453 58.1883C336.993 55.6461 338.122 52.539 338.122 48.5844C338.122 44.6299 336.993 41.2403 334.453 38.9805C331.912 36.7208 329.09 35.3084 325.421 35.3084C321.752 35.3084 318.647 36.4383 316.389 38.9805C314.131 41.5227 312.72 44.6299 312.72 48.5844C312.72 52.539 313.849 55.9286 316.389 58.1883C318.647 60.7305 321.752 61.8604 325.421 61.8604C328.808 61.8604 331.912 60.4481 334.453 58.1883Z" fill="#2C2D28"/>
<path d="M10.1606 63.8377H5.08027C5.08027 63.8377 5.08027 63.8377 5.08027 63.5552C4.79803 62.9903 4.51579 62.1429 3.95131 61.5779V61.2955C3.66908 60.4481 3.38684 59.8831 3.1046 59.0357C3.1046 59.0357 3.1046 59.0357 3.1046 58.7532C2.82236 57.9058 2.54012 57.3409 2.25788 56.4935C1.97565 55.6461 1.69341 55.0812 1.69341 54.2338V53.9513C1.41117 53.1039 1.41117 52.539 1.12893 51.6916V51.4091C1.12893 50.5617 0.846692 49.9968 0.846692 49.1494V48.8669C0.846692 48.0195 0.846692 47.4545 0.564453 46.6071V46.3247C0.564453 45.4773 0.564453 44.6299 0.564453 43.7825C0.564453 42.9351 0.564453 42.0877 0.564453 41.2403V40.9578C0.564453 40.1104 0.564453 39.263 0.846692 38.4156V38.1331C0.846692 37.2857 1.12893 36.4383 1.12893 35.8734C1.12893 35.8734 1.12893 35.5909 1.12893 35.3084C1.41117 34.461 1.41117 33.8961 1.69341 33.0487V32.7662C1.97565 31.9188 2.25788 31.0714 2.25788 30.5065C2.25788 30.5065 2.25788 30.5065 2.25788 30.224C2.54012 29.0942 2.82236 28.2468 3.1046 27.6818C3.38684 26.8344 3.66908 26.2695 4.23355 25.4221V25.1396C4.51579 24.2922 5.08027 23.7273 5.36251 22.8799V22.5974H10.1606V63.8377Z" fill="#3339F1"/>
<path d="M40.0778 31.6364V55.3636C34.9976 53.6688 31.6107 49.1494 31.6107 43.5C31.3285 38.1331 34.9976 33.3312 40.0778 31.6364Z" fill="#3339F1"/>
<path d="M40.0778 0V23.7273C30.7639 25.7045 23.708 33.6136 23.708 43.5C23.708 53.3864 30.7639 61.5779 40.0778 63.2727V87C28.506 86.1526 17.4987 80.2208 10.1605 71.4643H18.0632V14.9708H10.725C18.0632 6.21429 28.506 0.847403 40.0778 0Z" fill="#3339F1"/>
<path d="M47.6982 55.3636V31.3539C52.7785 33.0487 56.4476 37.8506 56.4476 43.2175C56.4476 49.1494 52.7785 53.9513 47.6982 55.3636Z" fill="#3339F1"/>
<path d="M69.9951 71.4643H77.3333C69.9951 80.2208 59.27 85.8701 47.6982 87V63.2727C57.0121 61.5779 64.0681 53.3864 64.0681 43.5C64.0681 33.6136 57.0121 25.4221 47.6982 23.7273V0C58.9878 1.12987 69.1484 6.21429 76.4866 14.9708H69.9951V71.4643Z" fill="#3339F1"/>
<path d="M87.2117 43.5C87.2117 44.3474 87.2117 45.1948 87.2117 46.0422V46.3247C87.2117 47.1721 87.2117 48.0195 86.9295 48.5844V48.8669C86.9295 49.7143 86.6472 50.2792 86.6472 51.1266C86.6472 51.4091 86.6472 51.4091 86.6472 51.4091C86.365 52.2565 86.365 52.8214 86.0827 53.6688V53.9513C85.8005 54.7987 85.8005 55.3636 85.5183 56.211C85.236 57.0584 84.9538 57.6234 84.6715 58.4708C84.6715 58.4708 84.6715 58.4708 84.6715 58.7532C84.3893 59.6007 84.1071 60.1656 83.8248 61.013V61.2955C83.5426 62.1429 83.2604 62.7078 82.6959 63.2727C82.6959 63.2727 82.6959 63.2727 82.6959 63.5552H77.8978V22.5974H81.8492C81.8492 22.5974 81.8492 22.5974 81.8492 22.8799C82.1314 23.7273 82.6959 24.2922 82.9781 25.1396V25.4221C83.2604 26.2695 83.5426 26.8344 84.1071 27.6818C84.3893 28.5292 84.6715 29.0942 84.9538 29.9416C84.9538 29.9416 84.9538 29.9416 84.9538 30.224C85.236 31.0714 85.5183 31.6364 85.5183 32.4838V32.7662C85.8005 33.6136 85.8005 34.1786 86.0827 35.026C86.0827 35.3084 86.0827 35.3084 86.0827 35.5909C86.0827 36.4383 86.365 37.0032 86.365 37.8507V38.1331C86.365 38.9805 86.6472 39.8279 86.6472 40.6753V40.9578C87.2117 41.8052 87.2117 42.6526 87.2117 43.5Z" fill="#3339F1"/>
</g>
<defs>
<clipPath id="clip0_45_58">
<rect width="348" height="87" fill="white"/>
</clipPath>
</defs>
</svg>
