<?xml version="1.0" standalone="no"?>
<!DOCTYPE svg PUBLIC "-//W3C//DTD SVG 20010904//EN"
 "http://www.w3.org/TR/2001/REC-SVG-20010904/DTD/svg10.dtd">
<svg version="1.0" xmlns="http://www.w3.org/2000/svg"
 width="260.000000pt" height="260.000000pt" viewBox="0 0 260.000000 260.000000"
 preserveAspectRatio="xMidYMid meet">
<metadata>
Created by potrace 1.14, written by Peter Selinger 2001-2017
</metadata>
<g transform="translate(0.000000,260.000000) scale(0.100000,-0.100000)"
fill="#000000" stroke="none">
<path d="M1098 2413 c-135 -27 -257 -74 -363 -137 -90 -54 -202 -146 -259
-213 l-19 -23 82 3 c45 2 86 0 92 -3 8 -6 13 -697 9 -1372 l0 -87 -102 -3
-101 -3 59 -60 c178 -180 427 -306 657 -330 l57 -6 0 305 0 304 -52 18 c-94
30 -152 65 -218 133 -163 164 -198 408 -88 613 58 110 193 218 311 249 l47 13
0 308 0 308 -25 -2 c-14 -1 -53 -8 -87 -15z"/>
<path d="M1410 2116 l0 -304 53 -17 c226 -73 367 -264 367 -501 0 -230 -152
-434 -374 -499 l-41 -12 -3 -303 -2 -303 47 7 c92 12 202 41 268 71 17 7 53
23 80 35 81 36 207 124 289 202 42 40 76 76 76 81 0 4 -42 7 -92 7 l-93 0 0
724 c0 636 2 725 15 729 8 2 45 3 83 2 37 -1 67 2 67 6 0 13 -159 156 -216
195 -120 79 -264 139 -406 168 -132 27 -118 62 -118 -288z"/>
<path d="M2200 1825 c-1 -31 -1 -901 -1 -976 l1 -66 61 1 c70 3 71 4 107 106
46 133 64 231 66 350 3 253 -27 403 -114 570 -17 33 -21 35 -69 35 -44 0 -51
-3 -51 -20z"/>
<path d="M270 1757 c-63 -134 -85 -254 -85 -452 1 -184 13 -269 58 -393 50
-137 56 -142 150 -133 l37 3 -2 527 -3 526 -59 2 -58 1 -38 -81z"/>
<path d="M1149 1582 c-176 -112 -208 -362 -65 -505 31 -31 103 -77 121 -77 3
0 5 137 5 305 0 168 -4 305 -8 305 -4 0 -28 -13 -53 -28z"/>
<path d="M1410 1300 c0 -170 2 -310 5 -310 19 0 86 44 118 77 157 162 129 393
-62 514 -25 16 -49 29 -53 29 -4 0 -8 -139 -8 -310z"/>
</g>
</svg>
